<svg width="320" height="100" viewBox="0 0 320 100" fill="none" xmlns="http://www.w3.org/2000/svg">
<path d="M284.224 28H259V37.3657H284.224V28Z" fill="#333333"/>
<path d="M283.915 41.2571H258.691V50.6227H283.915V41.2571Z" fill="#333333"/>
<path fill-rule="evenodd" clip-rule="evenodd" d="M174.303 88.7787C178.188 91.5413 182.584 93 187.019 93C191.451 93 195.85 91.539 199.735 88.7787C203.135 86.3608 206.125 83.0071 208.626 78.8069C213.355 70.866 215.957 60.4556 215.957 49.4989C215.957 38.5421 213.352 28.1317 208.626 20.1908C206.127 15.9906 203.135 12.6346 199.735 10.219C195.85 7.4564 191.451 5.99768 187.019 5.99768C182.586 5.99768 178.188 7.45874 174.303 10.219C170.903 12.637 167.913 15.9906 165.412 20.1908C160.683 28.1317 158.081 38.5421 158.081 49.4989C158.081 60.4556 160.685 70.866 165.412 78.8069C167.91 83.0071 170.903 86.3631 174.303 88.7787ZM177.932 27.2405C180.645 22.6838 183.956 20.0712 187.019 20.0712C190.081 20.0712 193.392 22.6838 196.105 27.2405C199.525 32.9886 201.488 41.1007 201.488 49.4989C201.488 57.897 199.527 66.0091 196.105 71.7572C193.392 76.3139 190.081 78.9265 187.019 78.9265C183.956 78.9265 180.645 76.3139 177.932 71.7572C174.513 66.0091 172.55 57.897 172.55 49.4989C172.55 41.1007 174.51 32.9886 177.932 27.2405ZM45.9463 93H95.8642V78.9288H58.5536L95.599 17.2734C96.906 15.0971 96.9181 12.4071 95.6279 10.2214C94.3378 8.03566 91.9455 6.68717 89.3532 6.68717H25V20.7584H76.7483L39.7005 82.4138C38.3935 84.5901 38.3814 87.2801 39.6715 89.4658C40.9617 91.6515 43.3539 93 45.9463 93ZM126.338 93C121.904 93 117.507 91.5413 113.622 88.7787C110.222 86.3631 107.23 83.0071 104.731 78.8069C100.005 70.866 97.4004 60.4556 97.4004 49.4989C97.4004 38.5421 100.002 28.1317 104.731 20.1908C107.232 15.9906 110.222 12.6369 113.622 10.219C117.507 7.45874 121.906 6.00002 126.338 6.00002C130.771 6.00002 135.169 7.45874 139.054 10.2214C142.454 12.6369 145.447 15.9929 147.945 20.1908C152.672 28.1317 155.276 38.5421 155.276 49.4989C155.276 60.4556 152.674 70.866 147.945 78.8069C145.445 83.0071 142.454 86.3608 139.054 88.7763C135.169 91.5366 130.771 92.9977 126.338 92.9977V93ZM126.338 20.0712C123.276 20.0712 119.965 22.6838 117.252 27.2405C113.83 32.9886 111.869 41.1007 111.869 49.4989C111.869 57.897 113.832 66.0091 117.252 71.7572C119.965 76.3139 123.276 78.9265 126.338 78.9265C129.401 78.9265 132.712 76.3139 135.425 71.7572C138.847 66.0091 140.807 57.897 140.807 49.4989C140.807 41.1007 138.844 32.9886 135.425 27.2405C132.712 22.6838 129.401 20.0712 126.338 20.0712ZM228.407 6.00002H259.651C278.591 6.00002 294 20.9859 294 39.4051C294 57.8243 278.591 72.8102 259.651 72.8102H235.642V93H221.173V13.0356C221.173 9.14963 224.411 6.00002 228.407 6.00002ZM235.642 58.7366H259.651V58.739C270.613 58.739 279.531 50.0664 279.531 39.4051C279.531 28.7438 270.613 20.0712 259.651 20.0712H235.642V58.7366Z" fill="url(#paint0_linear_132_111)"/>
<path d="M198.5 65C203.747 65 208 58.2843 208 50C208 41.7157 203.747 35 198.5 35C193.253 35 189 41.7157 189 50C189 58.2843 193.253 65 198.5 65Z" fill="#333333"/>
<path d="M137.5 65C142.747 65 147 58.2843 147 50C147 41.7157 142.747 35 137.5 35C132.253 35 128 41.7157 128 50C128 58.2843 132.253 65 137.5 65Z" fill="#333333"/>
<defs>
<linearGradient id="paint0_linear_132_111" x1="25" y1="49.4989" x2="294" y2="49.4989" gradientUnits="userSpaceOnUse">
<stop stop-color="#00C298"/>
<stop offset="1" stop-color="#FFDC68"/>
</linearGradient>
</defs>
</svg>
